<svg width="60" height="60" viewBox="0 0 60 60" fill="none" xmlns="http://www.w3.org/2000/svg">
<path fill-rule="evenodd" clip-rule="evenodd" d="M6.76474 46.843C6.87367 47.0425 7.07948 47.1693 7.30671 47.1765L16.592 47.4568L20.7603 55.2189C20.8692 55.4216 21.0791 55.551 21.309 55.5564H21.3237C21.5483 55.5564 21.7572 55.4381 21.8728 55.2452L27.6679 45.5653C28.3822 45.6394 29.104 45.6792 29.8318 45.6792C30.6358 45.6792 31.4318 45.6278 32.2184 45.5376L38.0545 55.2885C38.171 55.4818 38.3791 55.5997 38.6036 55.5997H38.6184C38.8483 55.5939 39.0586 55.4653 39.167 55.2622L43.3354 47.4996L52.6211 47.2202C52.8474 47.213 53.0546 47.0863 53.1631 46.8876C53.2724 46.688 53.2675 46.4465 53.151 46.2514L47.1568 36.2385C49.2957 32.9371 50.4465 29.0898 50.4465 25.0626C50.4465 19.5559 48.3019 14.3792 44.4081 10.4855C36.3711 2.44755 23.2927 2.44755 15.2527 10.4855C8.2134 17.5248 7.3398 28.4295 12.6286 36.4295L6.77454 46.2085C6.66026 46.4031 6.65534 46.6451 6.76472 46.8433L6.76474 46.843ZM51.4939 45.9729L42.9287 46.23C42.7002 46.2372 42.4921 46.3657 42.3841 46.5675L38.5747 53.6617L33.5899 45.3336C37.6654 44.5867 41.4176 42.6327 44.4105 39.6403C45.119 38.9318 45.7672 38.1806 46.3574 37.3926L51.4939 45.9729ZM16.1602 11.39C19.9302 7.61997 24.8807 5.73643 29.8322 5.73643C34.783 5.73643 39.7362 7.62123 43.5042 11.39C47.1559 15.0427 49.1676 19.898 49.1676 25.062C49.1676 30.2267 47.1559 35.0826 43.5042 38.734C39.8524 42.3858 34.9966 44.3975 29.8322 44.3975C24.6678 44.3975 19.8125 42.3858 16.1602 38.734C8.62086 31.1956 8.62086 18.9283 16.1602 11.3889V11.39ZM13.4445 37.5626C13.9954 38.2845 14.5954 38.9809 15.2553 39.6399C18.3004 42.685 22.1325 44.6541 26.2918 45.3703L21.3534 53.6185L17.5441 46.5243C17.436 46.3225 17.2284 46.194 16.9994 46.1868L8.43553 45.9292L13.4445 37.5626ZM29.8322 42.1974C34.409 42.1974 38.7121 40.4148 41.9487 37.1786C48.6291 30.4983 48.6291 19.6278 41.9487 12.9466C38.7122 9.71007 34.4094 7.9279 29.8322 7.9279C25.2549 7.9279 20.9527 9.71053 17.7167 12.9466C14.4802 16.1828 12.6975 20.4855 12.6975 25.0632C12.6975 29.64 14.4802 33.9426 17.7163 37.1786C20.9529 40.4152 25.2551 42.1969 29.8329 42.1969L29.8322 42.1974ZM18.6214 13.8522C21.6161 10.8576 25.5969 9.20847 29.8322 9.20847C34.0678 9.20847 38.0487 10.8576 41.0438 13.8522C47.2255 20.034 47.2255 30.0922 41.0438 36.274C38.0487 39.2686 34.0679 40.9177 29.8322 40.9177C25.5964 40.9177 21.6156 39.2686 18.6214 36.274C15.6268 33.2793 13.9772 29.2985 13.9772 25.0637C13.9772 20.828 15.6273 16.8468 18.6214 13.852V13.8522ZM22.7861 28.1689C23.027 28.2035 23.2679 28.2382 23.5088 28.2739L23.5088 28.2744C24.557 27.2229 25.2802 26.4998 26.1932 25.5873L26.6557 25.1239L19.3566 20.2836C19.1963 20.1778 19.0927 20.006 19.0735 19.8144C19.0543 19.6229 19.1222 19.4336 19.2579 19.2979L20.5985 17.9577C20.7605 17.7952 20.9962 17.7332 21.2181 17.7921C24.4378 18.6631 29.957 20.0456 31.3926 20.3912L35.1596 16.6188C35.6261 16.1519 36.1743 15.8916 36.7908 15.8429C37.5449 15.7885 38.2814 16.0956 38.7716 16.6755C39.2631 17.2568 39.4462 18.0394 39.2627 18.7711C39.1466 19.2327 38.91 19.638 38.5381 20.009L37.5212 21.026L37.3084 21.2387C36.476 22.0707 35.7152 22.8311 34.7729 23.7688L37.3765 33.9532C37.4327 34.1728 37.3684 34.4045 37.2086 34.5643L35.8667 35.9063C35.7305 36.042 35.5394 36.1054 35.3502 36.0907C35.1595 36.0715 34.9868 35.9674 34.881 35.8076L30.0399 28.5062L29.5998 28.9464C29.4899 29.0563 29.3829 29.1633 29.2779 29.2683C28.4976 30.0487 27.8277 30.7187 26.8868 31.6544C26.9489 32.0705 27.0087 32.4866 27.0681 32.9017L27.236 34.0531C27.2846 34.3847 27.185 34.6816 26.9462 34.912C26.7271 35.1253 26.5107 35.3422 26.2938 35.5595L26.2935 35.5598L25.9757 35.8785C25.945 35.9096 25.9112 35.9397 25.8727 35.974C25.867 35.9791 25.8611 35.9843 25.8552 35.9897C25.7324 36.0995 25.5565 36.1714 25.3886 36.1714C25.3583 36.1714 25.3284 36.1691 25.2989 36.1642C25.1069 36.1316 24.9163 36.0348 24.8221 35.8647L23.8114 34.0436C23.7697 33.9683 23.728 33.893 23.6863 33.8177C23.4022 33.3046 23.1182 32.7915 22.8297 32.2816C21.9693 31.8221 21.0964 31.3376 20.2244 30.8534L20.1431 30.8083L19.4002 30.3949L19.3399 30.3606L19.2841 30.328C19.1114 30.2293 18.9944 30.0552 18.9681 29.8574C18.9417 29.6597 19.0083 29.461 19.1498 29.3204L19.59 28.8815L19.6347 28.8371C19.8341 28.639 20.0335 28.4409 20.2274 28.2378C20.4743 27.9789 20.7792 27.8748 21.1395 27.9298C21.5922 27.9981 22.0454 28.0628 22.4989 28.1275C22.5947 28.1414 22.6904 28.1551 22.7861 28.1689ZM20.7169 19.648L28.0052 24.4819L28.0052 24.4817C28.1601 24.5835 28.2624 24.7478 28.2851 24.9308C28.3097 25.1143 28.2534 25.2991 28.1311 25.4375L28.0838 25.4933C28.0458 25.5384 28.0146 25.5733 27.982 25.6058L27.0981 26.4902C26.154 27.434 25.4124 28.176 24.3044 29.2876C24.0749 29.5179 23.7932 29.6104 23.47 29.5621C23.1094 29.5082 22.7508 29.4571 22.3909 29.4057L22.3168 29.3952C22.2037 29.3788 22.0905 29.3626 21.9774 29.3464C21.673 29.3027 21.3687 29.259 21.0651 29.2135C20.9293 29.3532 20.7918 29.4907 20.6544 29.6282L20.7637 29.6889C20.8584 29.7416 20.9531 29.7942 21.0477 29.8468C21.8548 30.2954 22.6613 30.7438 23.466 31.1957C23.6129 31.2787 23.8151 31.4247 23.9432 31.6519C24.2684 32.2269 24.5885 32.8051 24.9089 33.3839L24.9307 33.4234L25.5325 34.5082C25.67 34.3698 25.808 34.2314 25.9477 34.0952C25.9115 33.851 25.8764 33.6062 25.8413 33.3613C25.828 33.2683 25.8147 33.1753 25.8013 33.0823C25.7361 32.6283 25.6705 32.1747 25.6022 31.7216C25.5504 31.3787 25.6477 31.0805 25.8928 30.8359C26.8802 29.8537 27.5667 29.1674 28.37 28.3644C28.4758 28.2586 28.5837 28.1507 28.6946 28.0399L29.6879 27.0452C29.8236 26.9095 30.0138 26.8443 30.2044 26.8609C30.3951 26.8801 30.5678 26.9841 30.6736 27.1439L35.5147 34.4453L36.045 33.9149L33.4946 23.9367C33.4049 23.5542 33.4991 23.2283 33.7723 22.9564C34.8402 21.8939 35.6696 21.0644 36.6147 20.1185L37.6321 19.1015C37.8384 18.8952 37.9611 18.6908 38.0201 18.4564C38.1053 18.1198 38.0223 17.7711 37.7937 17.4997C37.566 17.2296 37.2415 17.0881 36.8915 17.1171C36.579 17.1417 36.316 17.2702 36.0651 17.5211L32.1834 21.4087C31.862 21.7319 31.5049 21.7328 31.2624 21.6739C30.1883 21.4207 24.6588 20.0382 21.2419 19.123L20.7169 19.648Z" fill="#04A2D0"/>
</svg>
