<svg width="60" height="60" viewBox="0 0 60 60" fill="none" xmlns="http://www.w3.org/2000/svg">
<path fill-rule="evenodd" clip-rule="evenodd" d="M5.01164 49.1233H23.5716L23.5721 54.9317C23.5721 55.2853 23.8583 55.5719 24.2123 55.5719H54.9323C55.2859 55.5719 55.5725 55.2853 55.5725 54.9317L55.572 11.4597C55.572 11.1061 55.2858 10.8195 54.9318 10.8195H36.3718V5.01152C36.3718 4.65794 36.0857 4.37134 35.7316 4.37134H5.01164C4.65806 4.37134 4.37146 4.65794 4.37146 5.01152V48.4835C4.37191 48.8371 4.65806 49.1233 5.01164 49.1233ZM36.0425 49.0424C36.0567 49.0345 36.0677 49.0235 36.0788 49.0125C36.084 49.0073 36.0892 49.0022 36.0947 48.9973C36.0979 48.9945 36.1011 48.9919 36.1046 48.9893L36.1077 48.987C36.1431 48.9606 36.1773 48.9352 36.2068 48.9023C36.2326 48.8731 36.2511 48.8416 36.2705 48.8088L36.2738 48.8032L36.2774 48.797L36.2774 48.7969C36.2971 48.7635 36.3161 48.7312 36.3291 48.6942C36.3434 48.6542 36.3486 48.6141 36.354 48.5722L36.355 48.5648C36.356 48.5567 36.3579 48.5489 36.36 48.5412L36.3628 48.531C36.3672 48.5157 36.3715 48.5004 36.3715 48.4835V47.5371H42.6277C42.9813 47.5371 43.2679 47.2505 43.2679 46.8969C43.2679 46.5433 42.9818 46.2567 42.6277 46.2567H36.3715V40.6464H42.6277C42.9813 40.6464 43.2679 40.3598 43.2679 40.0063C43.2679 39.6527 42.9818 39.3661 42.6277 39.3661H36.3715V33.7558H42.6277C42.9813 33.7558 43.2679 33.4692 43.2679 33.1156C43.2679 32.762 42.9818 32.4754 42.6277 32.4754H36.3715V26.8651H42.6277C42.9813 26.8651 43.2679 26.5785 43.2679 26.225C43.2679 25.8714 42.9818 25.5848 42.6277 25.5848H36.3715V19.9749H42.6277C42.9813 19.9749 43.2679 19.6883 43.2679 19.3348C43.2679 18.9812 42.9818 18.6946 42.6277 18.6946H36.3715V12.1004H54.2915V54.2924H26.6127L36.0425 49.0424ZM24.8514 53.808V49.1237H33.2662L24.8514 53.808ZM5.65141 5.65147H35.0914V47.8435H5.65141V5.65147ZM30.6562 26.0455L23.5937 22.754L23.5933 17.2563C23.5968 17.1612 23.6625 14.9143 22.0481 13.3197C21.1651 12.4478 19.7821 12.4465 18.8977 13.3197C17.2839 14.9139 17.3481 17.1612 17.3513 17.2321V22.754L10.2902 26.0455C9.34465 26.4857 8.73349 27.4451 8.73349 28.4884V30.6781C8.73349 30.8678 8.81787 31.0477 8.9634 31.1692C9.10849 31.2906 9.30045 31.3406 9.48795 31.3076L17.3085 29.8906C17.3692 30.65 17.4674 31.9504 17.5308 33.3848L15.0358 34.304C14.4465 34.5701 14.0657 35.1594 14.0657 35.8054V38.484C14.0657 38.6688 14.1456 38.8447 14.2849 38.9666C14.4242 39.088 14.6063 39.1429 14.7929 39.1179L20.4723 38.3363L26.1518 39.1179C26.1812 39.122 26.2107 39.1237 26.2393 39.1237C26.3928 39.1237 26.5424 39.0684 26.6598 38.9662C26.7991 38.8447 26.879 38.6688 26.879 38.4836V35.8049C26.879 35.1585 26.4982 34.5693 25.8665 34.2862L23.4147 33.3844C23.4786 31.9505 23.5768 30.6496 23.637 29.8902L31.4576 31.3072C31.6451 31.3415 31.8371 31.2906 31.9822 31.1688C32.1277 31.0473 32.2121 30.8674 32.2121 30.6777V28.488C32.2125 27.4451 31.6017 26.4861 30.6562 26.0455ZM30.9326 29.9116L23.1696 28.5048C22.9879 28.4718 22.8013 28.5245 22.6571 28.6392C22.5129 28.7539 22.4245 28.9312 22.416 29.1151C22.4144 29.1506 22.4062 29.2493 22.3938 29.401L22.3906 29.4397C22.3343 30.1289 22.2026 31.7437 22.1281 33.5343C22.1129 33.8718 22.2714 34.1968 22.5504 34.4035C22.599 34.4392 22.6531 34.4687 22.7102 34.4892L25.3835 35.4709C25.5147 35.5298 25.5995 35.6615 25.5995 35.8057V37.7499L20.5602 37.0566C20.5308 37.0526 20.5022 37.0508 20.4727 37.0508C20.4433 37.0508 20.4147 37.0526 20.3852 37.0566L15.3459 37.7499V35.8057C15.3459 35.6615 15.4307 35.5303 15.5196 35.4883L18.2352 34.4896C18.2919 34.4691 18.345 34.4401 18.3933 34.4048C18.6745 34.1986 18.8334 33.8731 18.8183 33.5365C18.7438 31.7452 18.6122 30.1318 18.5559 29.4414V29.4413L18.5559 29.4412L18.5558 29.4412L18.5558 29.4401L18.5435 29.291L18.5434 29.2903L18.5432 29.2883L18.5432 29.2877L18.5431 29.2861C18.536 29.2012 18.5316 29.1478 18.5308 29.1351C18.5308 28.9454 18.4464 28.7655 18.3008 28.6441C18.1553 28.5222 17.9629 28.4704 17.7763 28.5057L10.0133 29.9124V28.4888C10.0133 27.941 10.3339 27.4374 10.8307 27.2061L18.2619 23.7423C18.4869 23.6373 18.6311 23.411 18.6311 23.1623L18.6307 17.2087L18.6307 17.2084C18.6299 17.1769 18.5842 15.429 19.7977 14.2306C20.1771 13.8556 20.77 13.8569 21.1481 14.2306C22.3413 15.4088 22.3148 17.1544 22.3137 17.2305L22.3137 17.2324V23.1619C22.3137 23.4105 22.4579 23.6369 22.6829 23.7418L30.1145 27.2057C30.6114 27.4374 30.9319 27.9405 30.9319 28.4883L30.9326 29.9116ZM50.0775 19.977H47.3899C47.0364 19.977 46.7502 19.6903 46.7497 19.3368C46.7497 18.9832 47.0364 18.6966 47.3899 18.6966H50.0775C50.4315 18.6966 50.7177 18.9832 50.7177 19.3368C50.7177 19.6903 50.431 19.977 50.0775 19.977ZM47.3899 26.8661H50.0775C50.431 26.8661 50.7177 26.5795 50.7177 26.2259C50.7177 25.8724 50.4315 25.5857 50.0775 25.5857H47.3899C47.0364 25.5857 46.7497 25.8724 46.7497 26.2259C46.7502 26.5795 47.0364 26.8661 47.3899 26.8661ZM50.0775 33.7564H47.3899C47.0364 33.7564 46.7502 33.4698 46.7497 33.1162C46.7497 32.7626 47.0364 32.476 47.3899 32.476H50.0775C50.4315 32.476 50.7177 32.7626 50.7177 33.1162C50.7177 33.4698 50.431 33.7564 50.0775 33.7564ZM47.3899 40.6467H50.0775C50.431 40.6467 50.7177 40.3601 50.7177 40.0065C50.7177 39.6529 50.4315 39.3663 50.0775 39.3663H47.3899C47.0364 39.3663 46.7497 39.6529 46.7497 40.0065C46.7502 40.3601 47.0364 40.6467 47.3899 40.6467ZM50.0775 47.5381H47.3899C47.0364 47.5381 46.7502 47.2515 46.7497 46.8979C46.7497 46.5443 47.0364 46.2577 47.3899 46.2577H50.0775C50.4315 46.2577 50.7177 46.5443 50.7177 46.8979C50.7177 47.2515 50.431 47.5381 50.0775 47.5381Z" fill="#04A2D0"/>
</svg>
