<svg width="42" height="42" viewBox="0 0 42 42" fill="none" xmlns="http://www.w3.org/2000/svg">
<rect x="1" y="1" width="40" height="40" rx="9.16901" fill="white"/>
<path d="M37.591 2.36328H4.40892C3.28139 2.36328 2.36353 3.28123 2.36353 4.409V37.5911C2.36353 38.7189 3.28115 39.6365 4.40892 39.6365H37.591C38.7189 39.6365 39.6364 38.7188 39.6364 37.5911V4.409C39.6367 3.28115 38.7188 2.36328 37.591 2.36328ZM33.361 14.2132L22.714 18.8697C22.6395 18.903 22.5831 18.9683 22.5644 19.0479C22.5437 19.1268 22.5625 19.2111 22.6135 19.2755C23.4122 20.2768 26.2154 23.8242 27.1444 25.4092C27.2579 25.6064 27.9497 25.3464 28.1726 25.3004L31.1645 24.6942C31.5313 24.6206 31.5862 24.776 32.8551 26.0779C33.0979 26.3261 33.0374 26.7386 32.7355 26.9105L29.3068 28.1883C29.2608 28.2146 29.2231 28.2415 29.1809 28.2672L28.2671 29.1814C28.2408 29.2245 28.2138 29.2619 28.1881 29.3082L26.9104 32.7363C26.7385 33.0375 26.3254 33.0981 26.078 32.8555C24.7762 31.5879 24.6208 31.5324 24.694 31.1659L25.3003 28.1737C25.3466 27.9515 25.6065 27.2593 25.4084 27.1461C23.8243 26.2165 20.2766 23.4133 19.275 22.6153C19.211 22.5642 19.127 22.5458 19.0474 22.5661C18.9675 22.5851 18.9019 22.6403 18.8689 22.7151L14.214 33.3613C14.1785 33.4409 14.1071 33.4986 14.0212 33.5145C13.9356 33.5303 13.8474 33.504 13.7863 33.4422L12.5763 32.2323C12.0649 31.7208 11.8423 30.9887 11.9822 30.2782L14.2961 18.5484C14.3294 18.3721 14.273 18.1898 14.1452 18.0661L10.6562 14.5771C9.63714 13.5831 7.70969 10.2098 8.81027 9.07888L8.9447 8.94444C9.00019 8.88896 9.05567 8.83347 9.07818 8.81096C10.2092 7.71014 13.5831 9.63694 14.5768 10.6563L18.0658 14.1453C18.1894 14.273 18.3711 14.3298 18.548 14.2962L30.2778 11.9812C30.9874 11.8411 31.7202 12.064 32.2319 12.5757L33.4415 13.7853C33.5033 13.8471 33.5296 13.9353 33.5138 14.0209C33.4989 14.1065 33.4405 14.1785 33.3609 14.2134L33.361 14.2132Z" fill="#04A2D0"/>
<path d="M38.0456 0.5H3.95441C2.04919 0.5 0.5 2.04919 0.5 3.95441V38.0456C0.5 39.9508 2.04919 41.5 3.95441 41.5H38.0456C39.9508 41.5 41.5 39.9508 41.5 38.0456V3.95441C41.5 2.04919 39.9508 0.5 38.0456 0.5ZM39.591 37.5912C39.591 38.6933 38.6931 39.5913 37.5909 39.5913H4.40879C3.30647 39.5913 2.40902 38.6935 2.40902 37.5912V4.40912C2.40902 3.30671 3.30624 2.40934 4.40912 2.40934H37.5912C38.6934 2.40934 39.5913 3.30698 39.5913 4.40944L39.591 37.5912Z" fill="#203F68" stroke="white"/>
</svg>
